<svg xmlns="http://www.w3.org/2000/svg" viewBox="0 0 178 229">
  <defs>
    <clipPath id="a">
      <path fill="#fff" d="M0 50.3h178v178H0z"/>
    </clipPath>
  </defs>
  <g class="layer">
    <path d="M117.43 12.11c-.52-.4-1.25-.4-1.77.01l-15.28 11.99L90.35.82c-.47-1.09-2.22-1.09-2.7 0L77.51 24.38 62.36 12.14a1.43 1.43 0 0 0-1.78-.03c-.54.4-.74 1.13-.5 1.76L70.6 41.82c.22.59.77.97 1.37.97h34.06c.61 0 1.15-.38 1.37-.97l10.52-27.95c.24-.63.04-1.35-.49-1.76zm-12.41 27.65H72.98l-8.21-21.82 12.41 10.03a1.48 1.48 0 0 0 2.26-.58L89 5.18l9.44 21.92a1.46 1.46 0 0 0 2.24.59l12.61-9.9-8.27 21.97zm2.33 7.09a1.5 1.5 0 0 1-1.48 1.52H72.12a1.5 1.5 0 0 1-1.47-1.52c0-.83.66-1.51 1.47-1.51h33.75c.82 0 1.48.68 1.48 1.51z"/>
    <g clip-path="url(#a)">
      <path d="M151.93 76.37A88.42 88.42 0 0 0 89 50.3a88.42 88.42 0 0 0-62.93 26.07A88.42 88.42 0 0 0 0 139.3a88.42 88.42 0 0 0 26.07 62.94A88.4 88.4 0 0 0 89 228.3a88.4 88.4 0 0 0 62.93-26.06A88.42 88.42 0 0 0 178 139.3a88.42 88.42 0 0 0-26.07-62.93zM89 221.04c-45.07 0-81.73-36.67-81.73-81.74 0-45.06 36.66-81.73 81.73-81.73 45.07 0 81.74 36.67 81.74 81.73 0 45.07-36.67 81.74-81.74 81.74z"/>
      <path d="M101.82 115.67a3.63 3.63 0 1 0-3.47 6.38 19.63 19.63 0 1 1-18.76.04 3.64 3.64 0 0 0-3.49-6.37 26.89 26.89 0 1 0 25.72-.05z"/>
      <path d="M152.34 149.67a17.48 17.48 0 0 1 0-20.73 24.51 24.51 0 0 0 1.47-27.05 24.5 24.5 0 0 0-24.17-12.26 17.47 17.47 0 0 1-17.94-10.36A24.5 24.5 0 0 0 89 64.47a24.5 24.5 0 0 0-22.7 14.8 17.47 17.47 0 0 1-17.94 10.36 24.5 24.5 0 0 0-24.17 12.26 24.51 24.51 0 0 0 1.47 27.05 17.48 17.48 0 0 1 0 20.73 24.51 24.51 0 0 0-1.47 27.05 24.46 24.46 0 0 0 24.17 12.26 17.47 17.47 0 0 1 17.94 10.36 24.5 24.5 0 0 0 22.7 14.8 24.5 24.5 0 0 0 22.7-14.8 17.46 17.46 0 0 1 17.94-10.36 24.5 24.5 0 0 0 24.17-12.26 24.51 24.51 0 0 0-1.47-27.05zm-4.83 23.42a17.32 17.32 0 0 1-17.08 8.67 24.7 24.7 0 0 0-25.38 14.65A17.34 17.34 0 0 1 89 206.87c-7.05 0-13.2-4.01-16.05-10.46a24.7 24.7 0 0 0-25.38-14.65 17.34 17.34 0 0 1-17.09-8.67 17.35 17.35 0 0 1 1.04-19.13 24.71 24.71 0 0 0 0-29.31 17.35 17.35 0 0 1-1.04-19.13 17.34 17.34 0 0 1 17.09-8.67A24.7 24.7 0 0 0 72.95 82.2c2.85-6.45 9-10.46 16.05-10.46 7.05 0 13.2 4.01 16.05 10.46a24.7 24.7 0 0 0 25.38 14.65 17.32 17.32 0 0 1 17.08 8.67 17.31 17.31 0 0 1-1.03 19.13 24.71 24.71 0 0 0 0 29.31 17.33 17.33 0 0 1 1.03 19.13z"/>
      <path d="M86.12 84.79a3.63 3.63 0 0 0-5.14 0l-5.08 5.08a3.63 3.63 0 0 0 5.13 5.14l5.09-5.08a3.63 3.63 0 0 0 0-5.14zm47.59 75.19a3.65 3.65 0 0 0-5.14 0l-5.08 5.09a3.63 3.63 0 0 0 5.13 5.14l5.09-5.09a3.63 3.63 0 0 0 0-5.14zm-77.35-25.79a3.62 3.62 0 0 0-5.13 0l-5.09 5.09a3.63 3.63 0 1 0 5.14 5.14l5.08-5.09a3.63 3.63 0 0 0 0-5.14zm71.18-27.61a3.65 3.65 0 0 0-5.14 0l-5.09 5.09a3.63 3.63 0 1 0 5.14 5.14l5.09-5.09a3.63 3.63 0 0 0 0-5.14zm-41.42 71.4a3.63 3.63 0 0 0-5.14 0l-5.08 5.09a3.63 3.63 0 0 0 5.13 5.14l5.09-5.09a3.63 3.63 0 0 0 0-5.14zm26.51-2.01-5.08-5.09a3.63 3.63 0 1 0-5.13 5.14l5.08 5.08a3.62 3.62 0 1 0 5.13-5.13zm-60.66-64.3-5.08-5.08a3.63 3.63 0 0 0-5.14 5.13l5.08 5.09a3.62 3.62 0 0 0 5.14 0 3.63 3.63 0 0 0 0-5.14zm81.74 27.6-5.08-5.08a3.63 3.63 0 1 0-5.14 5.14l5.08 5.08a3.62 3.62 0 0 0 5.14 0 3.63 3.63 0 0 0 0-5.14zm-83.56 29.1-5.08-5.09a3.65 3.65 0 0 0-5.14 0 3.65 3.65 0 0 0 0 5.14l5.09 5.08a3.59 3.59 0 0 0 5.13 0 3.62 3.62 0 0 0 0-5.13zm38.91-55.95h-.11a3.63 3.63 0 0 0-.01 7.27h.11a3.63 3.63 0 0 0 .01-7.27z"/>
    </g>
  </g>
</svg>
