<?xml version="1.0" standalone="no"?>
<!DOCTYPE svg PUBLIC "-//W3C//DTD SVG 20010904//EN"
 "http://www.w3.org/TR/2001/REC-SVG-20010904/DTD/svg10.dtd">
<svg version="1.0" xmlns="http://www.w3.org/2000/svg"
 width="916.000000pt" height="916.000000pt" viewBox="0 0 916.000000 916.000000"
 preserveAspectRatio="xMidYMid meet">
<metadata>
Created by potrace 1.14, written by Peter Selinger 2001-2017
</metadata>
<g transform="translate(0.000000,916.000000) scale(0.100000,-0.100000)"
fill="#000000" stroke="none">
<path d="M4542 9144 c-12 -8 -22 -19 -22 -24 0 -9 -18 -52 -71 -167 -10 -24
-19 -45 -19 -48 0 -6 -21 -55 -60 -140 -10 -22 -44 -101 -75 -175 -32 -74 -68
-157 -80 -185 -12 -27 -37 -86 -56 -130 -18 -44 -34 -82 -36 -84 -2 -4 -76 51
-138 103 -16 14 -35 29 -40 33 -6 5 -33 26 -60 49 -194 159 -364 293 -383 303
-50 27 -92 -18 -74 -80 5 -19 89 -245 187 -504 97 -258 188 -499 201 -533 12
-35 30 -75 39 -88 l15 -24 709 0 c673 0 709 1 724 18 10 10 17 24 17 30 0 7 4
20 9 30 9 16 19 41 88 227 14 39 29 79 34 90 5 11 29 76 54 145 25 69 50 134
55 145 5 11 43 112 85 225 41 113 79 213 85 222 23 41 -4 108 -44 108 -12 0
-84 -44 -96 -59 -3 -3 -32 -26 -65 -51 -33 -25 -62 -47 -65 -50 -3 -3 -36 -30
-75 -60 -38 -30 -76 -59 -82 -65 -7 -5 -23 -18 -35 -27 -66 -50 -184 -143
-188 -149 -3 -3 -14 -11 -26 -17 -19 -10 -23 -7 -42 37 -12 26 -22 50 -22 54
0 3 -13 34 -29 69 -36 79 -40 88 -151 348 -88 206 -106 246 -150 344 -11 25
-20 49 -20 55 0 13 -41 41 -60 41 -9 0 -26 -7 -38 -16z m117 -379 c29 -66 58
-133 66 -150 7 -16 64 -147 125 -290 61 -143 115 -263 118 -267 4 -4 19 -9 33
-13 20 -5 38 3 90 42 81 61 98 74 121 96 10 9 22 17 27 17 5 0 11 3 13 8 2 4
59 51 128 105 69 54 133 105 143 113 27 22 28 15 7 -36 -20 -48 -52 -134 -208
-550 l-99 -265 -642 -3 -641 -2 -11 27 c-10 26 -23 61 -98 261 -113 303 -185
492 -198 519 -8 18 -13 37 -11 43 1 5 59 -35 128 -91 69 -55 163 -131 208
-167 46 -37 98 -79 115 -95 36 -31 67 -42 95 -33 12 4 35 45 68 119 27 61 49
114 50 117 0 3 12 31 27 64 15 32 27 60 27 62 0 1 14 33 31 71 32 72 44 99 64
148 7 17 18 41 23 55 6 14 22 51 36 83 14 32 26 59 26 61 0 2 14 34 31 72 l31
68 13 -34 c6 -19 36 -89 64 -155z"/>
<path d="M3868 7330 c-25 -20 -27 -65 -4 -88 15 -15 78 -17 715 -17 551 0 701
3 713 13 24 19 27 57 7 83 l-18 24 -696 1 c-633 1 -699 -1 -717 -16z"/>
<path d="M4388 7144 c-2 -1 -49 -5 -105 -8 -56 -4 -110 -8 -120 -10 -10 -2
-40 -7 -68 -10 -78 -11 -106 -16 -160 -26 -27 -5 -61 -11 -75 -14 -14 -2 -43
-9 -65 -14 -22 -6 -51 -13 -65 -16 -97 -18 -410 -122 -560 -187 -151 -65 -334
-163 -544 -292 -11 -7 -31 -22 -45 -34 -14 -13 -29 -23 -33 -23 -7 0 -155
-108 -184 -135 -6 -5 -28 -23 -49 -40 -87 -68 -349 -321 -410 -396 -11 -13
-43 -51 -71 -84 -72 -85 -174 -222 -174 -234 0 -5 -3 -11 -8 -13 -37 -16 -318
-518 -348 -623 -1 -5 -16 -43 -33 -83 -52 -123 -127 -356 -146 -452 -2 -8 -8
-33 -14 -55 -5 -22 -13 -53 -15 -70 -7 -39 -14 -73 -22 -110 -4 -16 -8 -41
-10 -55 -3 -29 -14 -104 -20 -140 -19 -117 -26 -609 -11 -755 15 -143 31 -255
44 -320 3 -16 7 -39 9 -50 4 -27 12 -63 19 -85 3 -10 8 -27 10 -37 31 -153 95
-354 172 -542 63 -153 205 -435 238 -471 7 -8 14 -18 14 -22 3 -22 222 -336
271 -388 8 -9 33 -38 54 -64 99 -120 290 -311 406 -406 30 -25 57 -47 60 -50
3 -3 32 -27 65 -53 33 -26 65 -51 70 -55 156 -123 487 -312 710 -406 61 -26
119 -51 130 -55 11 -5 29 -12 40 -15 11 -2 66 -21 123 -40 56 -20 113 -38 125
-40 12 -3 49 -13 82 -22 70 -19 188 -45 263 -59 103 -19 221 -35 302 -41 25
-1 45 -4 45 -4 0 -8 441 -13 525 -5 25 2 73 6 107 9 96 8 226 26 308 42 17 3
41 7 55 9 14 2 25 4 25 5 0 2 14 5 55 13 14 3 63 15 110 27 47 12 92 23 100
25 30 7 295 97 305 104 6 4 33 16 60 26 73 26 316 145 420 205 111 65 344 218
365 240 3 3 33 27 66 53 97 73 138 111 314 287 140 140 360 393 360 415 0 3 6
12 13 19 27 28 135 193 203 311 37 66 164 318 164 327 0 4 11 31 24 60 36 78
96 241 96 259 0 9 3 19 7 23 4 3 8 14 9 22 1 9 6 23 10 32 4 9 8 22 9 27 2 6
13 46 24 90 12 44 24 91 27 105 3 14 7 33 10 42 3 10 7 29 10 43 2 14 6 36 8
50 3 14 7 33 10 43 3 9 7 37 10 62 3 25 8 56 11 69 2 13 7 49 10 80 3 31 8 81
12 111 9 72 9 556 0 640 -12 111 -19 164 -23 190 -5 26 -8 45 -19 115 -11 65
-11 67 -24 130 -7 33 -24 101 -38 150 -13 50 -26 97 -28 105 -14 62 -101 300
-141 388 -19 41 -34 76 -34 78 0 7 -97 201 -122 244 -125 217 -292 460 -380
555 -10 11 -35 40 -56 65 -116 140 -416 415 -572 526 -30 21 -61 43 -68 49 -7
5 -18 15 -25 20 -7 6 -22 15 -32 22 -11 7 -74 45 -141 86 -104 64 -332 183
-444 230 -91 39 -194 78 -295 110 -181 58 -213 67 -240 69 -14 1 -25 6 -25 11
0 4 -3 6 -8 3 -4 -2 -43 4 -87 15 -44 10 -96 21 -115 23 -19 2 -64 9 -100 15
-175 27 -245 32 -502 35 -120 2 -219 2 -220 0z m472 -298 c25 -3 72 -7 105
-11 33 -3 74 -8 90 -12 17 -3 37 -7 45 -9 68 -9 139 -21 165 -28 151 -36 272
-70 283 -78 6 -6 12 -8 12 -4 0 3 26 -4 58 -15 62 -22 81 -29 85 -28 2 0 128
-53 197 -83 96 -43 198 -94 278 -140 46 -26 85 -48 86 -48 4 0 165 -105 195
-127 55 -40 198 -150 225 -173 119 -102 326 -309 386 -386 8 -11 36 -45 63
-76 26 -31 47 -61 47 -67 0 -6 4 -11 9 -11 12 0 187 -264 245 -370 82 -149
212 -430 199 -430 -3 0 -1 -6 4 -12 8 -10 53 -132 58 -158 2 -11 28 -96 33
-110 3 -8 6 -19 7 -25 2 -5 10 -37 18 -70 20 -77 55 -257 62 -315 3 -25 8 -58
11 -73 17 -102 25 -560 11 -687 -21 -190 -25 -220 -48 -335 -25 -128 -24 -122
-49 -213 -12 -42 -23 -84 -25 -92 -5 -24 -81 -240 -104 -298 -71 -177 -207
-435 -298 -564 -18 -26 -33 -52 -33 -58 0 -5 -4 -10 -8 -10 -4 0 -16 -14 -26
-31 -20 -34 -160 -212 -215 -274 -66 -73 -246 -250 -310 -305 -36 -30 -73 -62
-82 -70 -25 -21 -36 -30 -114 -88 -38 -28 -75 -56 -82 -62 -7 -5 -15 -10 -18
-10 -4 0 -21 -11 -39 -25 -18 -14 -38 -25 -44 -25 -6 0 -12 -4 -14 -9 -4 -11
-173 -111 -187 -111 -5 0 -11 -4 -13 -8 -5 -13 -379 -187 -423 -196 -5 -2 -68
-21 -140 -44 -150 -47 -211 -63 -350 -91 -95 -19 -122 -23 -225 -37 -206 -27
-497 -31 -735 -10 -33 3 -71 8 -85 10 -14 3 -47 7 -75 11 -78 10 -283 53 -360
75 -38 12 -79 23 -89 25 -56 12 -368 129 -424 159 -15 8 -70 35 -122 61 -360
181 -713 456 -990 773 -65 74 -253 325 -272 361 -13 26 -48 81 -58 91 -6 6
-15 23 -71 127 -48 88 -76 145 -109 218 -12 28 -28 64 -36 80 -24 52 -98 262
-120 340 -2 6 -17 62 -33 125 -29 112 -35 139 -47 209 -3 18 -8 43 -10 55 -2
11 -6 45 -9 75 -3 30 -7 57 -9 60 -11 17 -21 221 -20 406 0 187 5 288 19 392
3 18 7 50 10 71 3 20 7 48 10 62 13 72 16 88 21 120 2 19 10 53 16 75 6 22 13
49 15 60 2 11 10 43 18 70 8 28 14 52 14 55 1 9 78 232 101 290 66 169 178
385 303 584 31 51 210 289 248 332 280 311 462 467 799 679 172 109 460 240
680 312 106 34 283 82 330 89 14 2 36 6 50 9 43 9 94 18 110 20 19 2 106 15
140 21 14 2 66 7 115 10 50 3 91 7 92 8 5 4 409 -3 453 -8z"/>
<path d="M4520 6579 c-157 -11 -281 -46 -418 -120 -40 -21 -80 -46 -88 -54 -9
-8 -20 -15 -25 -15 -18 0 -187 -176 -229 -239 -23 -35 -58 -98 -78 -140 -51
-111 -86 -163 -162 -239 -96 -96 -229 -164 -375 -192 -38 -7 -207 -6 -300 2
-15 1 -157 -11 -180 -16 -175 -35 -300 -94 -445 -208 -82 -64 -220 -226 -220
-258 0 -4 -3 -10 -7 -12 -8 -3 -53 -92 -74 -145 -15 -37 -39 -120 -45 -158 -3
-16 -9 -49 -13 -72 -9 -48 -7 -230 4 -288 25 -142 78 -266 171 -407 68 -102
114 -195 114 -227 0 -10 3 -21 7 -25 25 -25 31 -218 10 -327 -13 -68 -90 -240
-116 -259 -8 -6 -61 -91 -93 -150 -25 -46 -75 -185 -84 -236 -17 -91 -21 -134
-19 -227 3 -114 8 -151 37 -252 87 -302 320 -554 613 -662 140 -52 265 -64
503 -50 49 3 110 -3 187 -18 48 -9 66 -16 140 -51 144 -69 251 -179 333 -343
99 -196 168 -284 314 -397 289 -223 699 -262 1038 -98 52 26 97 50 98 55 2 5
10 9 18 9 8 0 14 4 14 8 0 4 12 15 28 24 29 17 121 105 160 152 54 65 94 128
145 231 31 61 64 121 74 134 121 158 263 247 463 288 14 3 70 5 125 4 253 -5
322 -2 393 18 18 5 33 10 35 10 1 0 9 2 17 5 8 3 34 10 57 16 23 6 45 15 48
20 3 6 12 10 20 10 15 0 153 77 173 97 7 7 17 13 21 13 5 0 44 35 88 78 206
202 314 461 307 737 -3 114 -6 140 -29 233 -26 105 -77 212 -155 327 -74 108
-115 206 -135 320 -7 40 -7 173 0 205 3 14 7 36 10 50 12 78 58 173 140 295
71 104 136 255 151 350 2 11 7 38 11 60 9 51 8 249 -1 295 -4 19 -9 44 -11 55
-17 97 -72 227 -146 340 -56 87 -182 221 -244 260 -16 11 -32 22 -35 25 -5 5
-20 14 -84 49 -42 24 -165 72 -196 77 -14 3 -34 8 -45 11 -11 3 -29 7 -40 9
-11 1 -37 5 -57 8 -53 7 -127 8 -263 2 -158 -7 -271 18 -388 86 -26 15 -51 28
-55 28 -4 0 -14 9 -22 20 -8 11 -18 20 -22 20 -14 0 -98 92 -137 150 -21 30
-57 95 -81 145 -52 109 -102 178 -194 271 -67 66 -183 154 -205 154 -5 0 -11
4 -13 8 -7 16 -248 110 -248 96 0 -2 -10 0 -23 5 -13 5 -52 12 -87 16 -36 4
-67 8 -70 9 -3 1 -52 -1 -110 -5z m275 -323 c44 -14 112 -45 152 -70 90 -56
197 -162 226 -226 6 -14 14 -27 18 -30 3 -3 21 -36 39 -75 113 -234 303 -414
535 -506 94 -38 289 -76 350 -70 73 8 302 7 332 0 107 -28 123 -34 196 -70 26
-13 47 -27 47 -31 0 -5 6 -8 14 -8 14 0 132 -110 171 -160 38 -48 94 -166 116
-245 23 -86 31 -203 17 -275 -5 -25 -10 -56 -13 -70 -10 -55 -56 -153 -110
-235 -145 -220 -197 -380 -197 -605 0 -143 45 -333 104 -432 15 -27 25 -48 23
-48 -3 0 15 -28 40 -62 137 -193 183 -369 148 -571 -30 -180 -148 -364 -293
-457 -25 -16 -50 -34 -57 -40 -7 -5 -16 -10 -20 -10 -4 0 -21 -7 -37 -15 -76
-40 -182 -59 -306 -56 -179 5 -235 5 -293 -2 -162 -19 -356 -100 -477 -200
-137 -113 -211 -209 -303 -392 -68 -134 -154 -233 -260 -299 -59 -37 -123 -69
-134 -67 -2 0 -21 -6 -44 -14 -72 -26 -236 -36 -309 -21 -14 3 -41 9 -60 13
-52 9 -163 58 -217 94 -113 75 -182 160 -267 325 -112 221 -251 364 -451 464
-182 91 -313 112 -595 98 -47 -2 -105 0 -130 4 -25 5 -54 11 -65 12 -11 2 -27
6 -35 9 -8 3 -37 13 -63 23 -26 9 -68 30 -93 46 -24 15 -47 28 -49 28 -5 0
-48 37 -94 80 -59 55 -154 205 -165 258 -1 9 -6 24 -9 32 -14 36 -27 101 -22
110 3 6 3 10 -2 10 -10 0 -9 147 1 207 7 43 33 123 57 178 7 17 39 68 69 115
110 166 164 299 185 454 7 60 8 232 0 266 -3 14 -8 39 -11 55 -24 137 -72 246
-178 409 -51 78 -101 176 -89 176 3 0 1 6 -4 13 -29 35 -45 213 -30 324 8 60
49 177 80 231 102 177 267 301 462 348 17 4 131 8 255 9 124 1 243 5 264 9
101 20 247 76 309 118 15 11 27 16 27 11 0 -4 4 -3 8 3 4 6 28 24 53 41 44 31
152 132 196 185 36 44 88 129 122 202 109 231 277 371 506 421 95 21 263 13
360 -19z"/>
<path d="M4304 5800 c-28 -11 -262 -246 -277 -278 -36 -76 5 -166 89 -195 70
-25 104 -7 232 117 126 124 151 158 157 213 10 103 -103 183 -201 143z"/>
<path d="M2740 4929 c-83 -34 -118 -140 -69 -211 38 -54 249 -258 272 -263 58
-13 78 -12 115 7 65 31 92 89 77 166 -9 50 -254 295 -304 305 -43 9 -60 8 -91
-4z"/>
<path d="M5966 4928 c-45 -17 -271 -247 -285 -290 -40 -121 79 -231 192 -179
44 20 282 260 285 287 1 10 3 28 5 39 2 11 -2 38 -10 60 -23 70 -115 111 -187
83z"/>
<path d="M4517 4646 c-53 -27 -79 -64 -82 -117 -3 -50 21 -103 60 -132 60 -44
171 -20 209 45 75 125 -58 270 -187 204z"/>
<path d="M4096 4542 c-21 -5 -117 -60 -164 -95 -63 -47 -151 -136 -206 -208
-52 -68 -142 -229 -160 -289 -5 -14 -9 -29 -11 -35 -33 -104 -48 -213 -48
-330 0 -134 12 -213 49 -323 29 -87 83 -206 95 -210 5 -2 9 -9 9 -16 0 -34
140 -198 235 -276 67 -55 225 -156 225 -143 0 3 6 1 13 -4 34 -27 213 -81 302
-91 70 -8 262 -6 310 2 247 45 435 142 606 316 197 201 302 459 302 745 0 296
-105 551 -316 767 -100 101 -253 198 -314 198 -84 0 -148 -73 -145 -163 2 -38
41 -84 114 -132 41 -27 94 -67 117 -88 51 -46 141 -157 141 -173 0 -7 4 -14 8
-16 10 -4 63 -123 74 -168 46 -177 43 -315 -9 -472 -77 -233 -265 -419 -503
-497 -161 -53 -363 -47 -521 15 -172 67 -318 194 -406 354 -37 66 -78 186 -89
255 -8 57 -8 195 0 240 3 17 8 41 10 55 3 14 5 25 6 25 1 0 3 7 5 15 37 158
177 346 334 449 92 61 116 98 109 166 -10 84 -92 145 -172 127z"/>
<path d="M3125 3824 c-26 -9 -75 -49 -152 -126 -153 -152 -173 -191 -133 -274
27 -55 59 -75 126 -79 50 -3 56 -1 101 38 91 81 221 218 237 252 16 34 14 91
-5 127 -15 27 -71 66 -105 71 -17 3 -48 -1 -69 -9z"/>
<path d="M6029 3832 c-29 -3 -79 -44 -97 -78 -16 -31 -17 -73 -3 -115 17 -51
254 -284 299 -294 123 -27 227 107 163 210 -15 26 -158 174 -232 242 -26 24
-88 40 -130 35z"/>
<path d="M6223 2797 c-43 -13 -269 -236 -293 -290 -13 -29 -15 -48 -9 -75 5
-20 9 -40 9 -43 0 -18 68 -70 97 -75 74 -14 98 0 229 129 128 125 154 162 154
216 0 39 -31 102 -59 118 -34 21 -94 30 -128 20z"/>
<path d="M2657 2655 c-40 -20 -58 -42 -72 -83 -15 -42 -10 -87 13 -122 29 -45
244 -251 276 -264 57 -23 137 5 173 61 26 39 26 111 0 148 -34 50 -245 255
-272 265 -37 14 -86 12 -118 -5z"/>
<path d="M5148 2346 c-65 -44 -86 -102 -63 -170 13 -36 50 -80 139 -164 22
-20 53 -52 70 -71 63 -68 139 -84 206 -44 58 34 84 124 53 180 -20 36 -236
259 -268 276 -36 19 -103 16 -137 -7z"/>
<path d="M4298 2067 c-51 -30 -258 -244 -274 -283 -8 -19 -12 -48 -9 -65 16
-92 80 -138 171 -124 39 5 56 18 163 125 137 136 152 156 156 207 7 112 -116
196 -207 140z"/>
</g>
</svg>
